Coordinates
version=1
nRows=6
nColumns=34
inDegrees=yes

Units are S.I. units (second, meters, Newtons, ...)
If the header above contains a line with 'inDegrees', this indicates whether rotational values are in degrees (yes) or radians (no).

endheader
time	pelvis_tilt	pelvis_list	pelvis_rotation	pelvis_tx	pelvis_ty	pelvis_tz	hip_flexion_r	hip_adduction_r	hip_rotation_r	knee_angle_r	ankle_angle_r	subtalar_angle_r	mtp_angle_r	hip_flexion_l	hip_adduction_l	hip_rotation_l	knee_angle_l	ankle_angle_l	subtalar_angle_l	mtp_angle_l	lumbar_extension	lumbar_bending	lumbar_rotation	arm_flex_r	arm_add_r	arm_rot_r	elbow_flex_r	pro_sup_r	arm_flex_l	arm_add_l	arm_rot_l	elbow_flex_l	pro_sup_l
      0.00000000	     15.48636609	    -17.53400871	    -44.99473697	      0.17821039	      0.42510874	     -0.04957043	     90.99768717	     -6.94112837	     -1.70564717	    119.00216128	      7.35980164	     -9.69448527	      0.00000000	     91.19301513	    -10.14075644	     19.45952126	    116.88652883	     13.06092741	      2.41080855	      0.00000000	    -50.93417656	     -6.44714733	      5.94516163	      3.29727312	    -13.56623872	    -12.45091720	     83.00749190	    119.74817918	     13.82512419	    -26.41361857	     -3.46092135	     80.43248854	    111.75619165
      0.01666670	     15.50555803	    -17.53743830	    -44.96131117	      0.17814423	      0.42528677	     -0.04970955	     90.93608638	     -6.95296664	     -1.66323334	    118.94348536	      7.36846159	     -9.70288623	      0.00000000	     91.19921605	    -10.16023470	     19.47722622	    116.86679839	     13.06045022	      2.40586946	      0.00000000	    -50.87884788	     -6.45264362	      5.97547618	      3.28563849	    -13.56577985	    -12.45556547	     82.96789247	    119.74817918	     13.79292401	    -26.43798305	     -3.47362166	     80.41582990	    111.77051437
      0.03333330	     15.39706135	    -17.82775401	    -45.20759060	      0.17809594	      0.42570156	     -0.04897264	     90.67032001	     -6.56068799	     -2.01437711	    118.93580663	      7.64721395	    -10.06289462	      0.00000000	     91.13185654	    -10.50097424	     19.77434548	    116.93067642	     13.21087542	      2.57152293	      0.00000000	    -50.93583820	     -6.42548888	      5.88056665	      3.60118642	    -13.71866968	    -11.59520436	     81.92986144	    119.74817918	     12.76280158	    -27.29585495	     -4.17378883	     80.87692983	    119.74817918
      0.05000000	     15.61590613	    -18.06770310	    -45.29942059	      0.17888043	      0.42613705	     -0.04870533	     90.32192263	     -6.28663951	     -1.87804156	    119.05903855	      7.80425848	     -9.99550192	      0.00000000	     90.76711903	    -10.56557142	     19.90184075	    117.10793304	     13.42800579	      2.66919087	      0.00000000	    -51.27712327	     -6.45384151	      6.02375200	      3.29699055	    -14.09927658	    -11.00820689	     81.73378008	    119.74817918	     12.07314744	    -28.20198256	     -3.30022623	     81.54620859	    119.74817918
      0.06666670	     15.63960214	    -18.19417515	    -45.36483833	      0.17988681	      0.42637770	     -0.04827629	     90.16805402	     -6.10047975	     -1.85292824	    119.16878807	      8.01436410	    -10.01065089	      0.00000000	     90.65834033	    -10.61358757	     20.02185710	    117.25499702	     13.57464723	      2.74486230	      0.00000000	    -51.41515665	     -6.38919664	      6.11384438	      2.99603794	    -14.40720884	    -10.17139143	     81.46495104	    119.74817918	     11.26567653	    -29.18004410	     -2.26515123	     82.17980060	    119.74817918
      0.08333330	     15.57243967	    -18.27009050	    -45.35960698	      0.18086429	      0.42597660	     -0.04785342	     90.19106253	     -5.92451881	     -1.77653548	    119.31356156	      8.15926634	    -10.06782385	      0.00000000	     90.78426800	    -10.62783250	     20.19541019	    117.44046168	     13.63861316	      2.87812376	      0.00000000	    -51.50972166	     -6.21640112	      6.12707229	      2.65183625	    -14.70377609	     -9.53592569	     81.11617638	    119.74817918	     10.34321086	    -30.27936869	     -1.37206039	     82.83274204	    119.74817918
